<svg width="43" height="34" viewBox="0 0 43 34" fill="none" xmlns="http://www.w3.org/2000/svg">
<g clip-path="url(#clip0_638_32)">
<path d="M8.9552 7.10933C8.48068 6.86944 7.90675 6.88144 7.44404 7.14088C6.98134 7.40034 6.698 7.86904 6.698 8.375V26.5834C6.698 27.3773 7.38357 28.0209 8.22925 28.0209C9.07493 28.0209 9.7605 27.3773 9.7605 26.5834V10.7817L20.7741 16.349C21.2273 16.5782 21.7728 16.5782 22.2261 16.349L33.2397 10.7817V26.5834C33.2397 27.3773 33.9253 28.0209 34.7709 28.0209C35.6166 28.0209 36.3022 27.3773 36.3022 26.5834V8.375C36.3022 7.86904 36.0188 7.40034 35.5561 7.14088C35.0935 6.88144 34.5196 6.86944 34.0449 7.10933L21.5001 13.4508L8.9552 7.10933Z" fill="black"/>
<path fill-rule="evenodd" clip-rule="evenodd" d="M32.3424 1.13333C25.1286 0.527821 17.8714 0.527821 10.6575 1.13333L7.55956 1.39337C4.23652 1.6723 1.55159 4.05552 1.06896 7.15462C0.052209 13.6835 0.052209 20.3163 1.06896 26.845C1.55159 29.9441 4.23652 32.3273 7.55956 32.6063L10.6575 32.8662C17.8714 33.4719 25.1286 33.4719 32.3424 32.8662L35.4402 32.6063C38.7634 32.3273 41.4482 29.9441 41.9309 26.845C42.9476 20.3163 42.9476 13.6835 41.9309 7.15462C41.4482 4.05552 38.7634 1.6723 35.4402 1.39337L32.3424 1.13333ZM10.9302 3.99691C17.9627 3.40663 25.0371 3.40663 32.0696 3.99691L35.1676 4.25695C37.0788 4.41737 38.6229 5.78807 38.9006 7.57052C39.8745 13.8234 39.8745 20.1762 38.9006 26.4291C38.6229 28.2116 37.0788 29.5822 35.1676 29.7427L32.0696 30.0027C25.0371 30.5931 17.9627 30.5931 10.9302 30.0027L7.83231 29.7427C5.92106 29.5822 4.37683 28.2116 4.09924 26.4291C3.12545 20.1762 3.12545 13.8234 4.09924 7.57052C4.37683 5.78807 5.92106 4.41737 7.83231 4.25695L10.9302 3.99691Z" fill="black"/>
</g>
<defs>
<clipPath id="clip0_638_32">
<rect width="43" height="34" fill="white"/>
</clipPath>
</defs>
</svg>
