<svg width="95" height="46" viewBox="0 0 95 46" fill="none" xmlns="http://www.w3.org/2000/svg">
<g clip-path="url(#clip0_602_21)">
<path d="M1.63356 17.2362L8.23352 17.2141L14.7006 37.1925L20.7935 17.1719L27.5934 17.1491L33.8605 37.1282L40.1533 17.1069L46.7533 17.0848L37.4473 45.1162L30.2874 45.1402L24.224 26.2805L18.2874 45.1805L11.1275 45.2045L1.63356 17.2362ZM68.7753 45.011L45.2554 45.09L45.1614 17.0901L68.6813 17.0112L68.7014 23.0112L51.5815 23.0686L51.599 28.2686L66.7189 28.2178L66.7377 33.8178L51.6178 33.8686L51.6352 39.0685L68.7551 39.0111L68.7753 45.011ZM85.1896 44.9559L68.3897 45.0123L68.2957 17.0125L84.2956 16.9588C87.5222 16.9479 89.8576 17.5534 91.3017 18.7753C92.7724 19.9703 93.5122 21.8879 93.5211 24.5279C93.5303 27.2745 92.7102 29.2506 91.0609 30.4561C93.2514 31.5955 94.3522 33.8185 94.3633 37.1251C94.3725 39.8451 93.6458 41.8342 92.1834 43.0925C90.7475 44.3239 88.4162 44.9451 85.1896 44.9559ZM74.7695 38.9909L85.1694 38.956C86.2894 38.9522 87.102 38.7361 87.6073 38.3078C88.1124 37.8528 88.3634 37.1586 88.3603 36.2252C88.3572 35.2919 88.1015 34.6128 87.5934 34.1878C87.0853 33.7628 86.2713 33.5522 85.1513 33.556L74.7514 33.5909L74.7695 38.9909ZM74.7326 27.9909L84.1325 27.9594C85.3058 27.9554 86.1585 27.7526 86.6905 27.3508C87.2491 26.9489 87.527 26.308 87.524 25.428C87.5212 24.5747 87.2657 23.9488 86.7577 23.5506C86.2497 23.1523 85.4357 22.955 84.3157 22.9587L74.7158 22.991L74.7326 27.9909Z" fill="white"/>
<path d="M0.704602 9.71592L3.15259 9.7077C3.30167 10.2285 3.63163 10.6128 4.14246 10.8604C4.65326 11.0967 5.39599 11.2132 6.37065 11.2099C8.17264 11.2039 9.07228 10.7985 9.06958 9.99384C9.06829 9.60851 8.82924 9.29764 8.35245 9.06124C7.87565 8.82484 7.04191 8.60664 5.85124 8.40663C3.94611 8.07303 2.63569 7.65242 1.91998 7.14482C1.21557 6.62585 0.86163 5.8507 0.858168 4.81937C0.854098 3.60671 1.25911 2.71568 2.0732 2.14628C2.88726 1.56555 4.14995 1.27231 5.86127 1.26656C7.52726 1.26097 8.78058 1.55143 9.62122 2.13795C10.4618 2.71313 10.975 3.66908 11.1609 5.00579L8.66187 5.01418C8.54675 4.4819 8.25079 4.09756 7.77399 3.86116C7.30849 3.61338 6.62241 3.49102 5.71575 3.49406C4.02709 3.49973 3.18407 3.89356 3.1867 4.67556C3.18788 5.02689 3.40416 5.3095 3.83555 5.52338C4.27827 5.73723 5.07799 5.94988 6.2347 6.16134C8.20791 6.51738 9.56372 6.95483 10.3021 7.47369C11.0405 7.99255 11.4115 8.77331 11.415 9.81597C11.4191 11.04 10.9915 11.9537 10.1322 12.5573C9.27284 13.1495 7.94784 13.4486 6.15718 13.4546C4.43452 13.4604 3.14154 13.1701 2.27824 12.5837C1.41493 11.9972 0.890385 11.0413 0.704602 9.71592ZM17.2381 3.60839L17.2305 1.3644L28.8755 1.32532L28.883 3.5693L24.259 3.58482L24.2914 13.2408L21.8945 13.2488L21.8621 3.59287L17.2381 3.60839ZM35.6296 1.30265L38.0266 1.2946L38.0485 7.82257C38.0524 8.96723 38.3215 9.79933 38.8559 10.3189C39.3903 10.8384 40.2412 11.0962 41.4085 11.0923C42.5758 11.0884 43.4193 10.8249 43.9389 10.3018C44.4698 9.77869 44.7333 8.9448 44.7295 7.80014L44.7076 1.27218L47.1046 1.26413L47.1271 7.97909C47.1334 9.84908 46.6846 11.2106 45.7808 12.0636C44.877 12.9053 43.422 13.3296 41.416 13.3363C39.4101 13.343 37.9467 12.9286 37.0258 12.093C36.1163 11.2461 35.6584 9.8876 35.6522 8.01761L35.6296 1.30265ZM54.6053 13.139L54.5654 1.23909L59.6314 1.22209C61.762 1.21494 63.3106 1.68007 64.2771 2.6175C65.2549 3.55489 65.7473 5.06625 65.7543 7.15157C65.7613 9.23689 65.279 10.7515 64.3075 11.6955C63.3474 12.6393 61.802 13.1149 59.6713 13.122L54.6053 13.139ZM56.9948 10.887L59.5788 10.8783C60.9161 10.8738 61.8841 10.5816 62.4828 10.0016C63.0815 9.41022 63.3787 8.46288 63.3743 7.15956C63.3699 5.85623 63.0664 4.91658 62.4638 4.3406C61.8612 3.75328 60.8912 3.46187 59.5539 3.46636L56.9699 3.47503L56.9948 10.887ZM72.9905 13.0773L72.9505 1.17738L75.3475 1.16934L75.3874 13.0693L72.9905 13.0773ZM88.6638 0.971642C90.7944 0.96449 92.343 1.44096 93.3096 2.40106C94.2875 3.36111 94.78 4.91214 94.7872 7.05412C94.7944 9.18478 94.3122 10.7391 93.3409 11.717C92.3808 12.6836 90.8354 13.1704 88.7047 13.1776C86.5627 13.1848 85.0085 12.7083 84.0419 11.7482C83.0753 10.7768 82.5884 9.22575 82.5813 7.09509C82.5741 4.9531 83.0505 3.39883 84.0106 2.43227C84.9707 1.46571 86.5218 0.978831 88.6638 0.971642ZM85.8354 4.14315C85.2481 4.75713 84.9567 5.73844 84.9613 7.0871C84.9658 8.43576 85.2637 9.4151 85.8551 10.0251C86.4465 10.6351 87.3939 10.938 88.6972 10.9336C90.0005 10.9292 90.9458 10.62 91.5331 10.0061C92.1204 9.39209 92.4117 8.41077 92.4072 7.06211C92.4027 5.71345 92.1047 4.73411 91.5134 4.1241C90.9219 3.50274 89.9746 3.19426 88.6712 3.19863C87.3679 3.203 86.4226 3.51785 85.8354 4.14315Z" fill="white"/>
</g>
<defs>
<clipPath id="clip0_602_21">
<rect width="95" height="46" fill="white"/>
</clipPath>
</defs>
</svg>
