<svg width="251" height="212" viewBox="0 0 251 212" fill="none" xmlns="http://www.w3.org/2000/svg">
<g clip-path="url(#clip0_63_411)">
<path d="M156.965 58.2263C139.616 47.6024 111.59 47.6024 94.3438 58.2263C77.0973 68.8503 77.1999 86.121 94.5491 96.7449C111.898 107.369 139.924 107.369 157.17 96.7449C174.417 86.0665 174.314 68.8503 156.965 58.2263ZM149.009 74.9522C147.521 75.4426 146.032 75.9874 144.543 76.4777C143.62 76.7501 143.055 76.8046 142.644 76.5867C142.439 76.4232 142.234 76.2053 142.028 75.8784C141.053 74.1895 139.565 72.7185 137.563 71.5199C137.306 71.3564 136.998 71.193 136.69 71.0295C136.023 70.6482 135.407 70.3758 134.586 70.1578C131.711 69.4496 129.145 70.5937 129.504 72.5005C129.658 73.4812 130.171 74.3529 130.787 75.2791C131.814 76.8046 132.943 78.3301 133.662 79.9645C136.074 85.0858 130.839 90.1526 122.421 90.6429C119.392 90.8064 116.518 90.425 113.849 89.4988C112.668 89.1175 111.796 89.1175 110.923 89.7712C110.05 90.3705 109.075 90.9154 108.151 91.4602C107.33 91.9505 106.457 92.005 105.636 91.5147C105.02 91.1878 104.456 90.8064 103.84 90.4795C103.429 90.2071 103.018 89.9892 102.608 89.7168C101.735 89.1719 101.838 88.6271 102.659 88.0823C103.326 87.6465 103.994 87.2651 104.61 86.8292C106.098 85.903 106.098 85.8486 104.866 84.8134C103.326 83.5059 101.94 82.1438 101.068 80.6183C100.401 79.4197 100.555 79.1473 102.351 78.4935C103.686 78.0577 104.969 77.5673 106.303 77.1315C107.279 76.8046 107.843 76.7501 108.254 76.968C108.511 77.1315 108.665 77.3494 108.87 77.7308C109.742 79.4742 111.231 80.9997 113.028 82.4707C113.336 82.7431 113.695 82.961 114.003 83.179C114.978 83.7783 116.107 84.2141 117.39 84.541C120.727 85.3582 123.704 83.9417 123.396 81.708C123.293 80.9452 122.934 80.2914 122.472 79.5832C121.343 77.7853 119.854 76.0963 119.084 74.1895C117.852 71.1385 118.417 68.3599 122.369 66.1807C126.886 63.729 131.917 63.5656 137.255 65.091C139.462 65.7448 139.411 65.7448 141.104 64.7097C141.669 64.3283 142.234 64.0014 142.798 63.6745C144.082 62.9118 144.543 62.9118 145.827 63.6745C146.237 63.8924 146.597 64.1649 147.007 64.3828C149.728 66.0172 149.728 66.0172 147.059 67.7062C145.159 68.8503 145.159 68.8503 146.751 70.2123C147.983 71.2475 148.958 72.3371 149.676 73.5357C150.241 74.135 150.036 74.6253 149.009 74.9522ZM180.114 110.801C175.341 113.743 167.59 113.743 162.765 110.801C157.992 107.859 157.94 103.065 162.714 100.123C167.488 97.1808 175.238 97.1808 180.063 100.123C184.888 103.065 184.939 107.859 180.114 110.801ZM88.749 54.794C83.9754 57.736 76.2247 57.736 71.3998 54.794C66.5749 51.852 66.5749 47.0576 71.3485 44.1156C76.122 41.1736 83.8727 41.1736 88.6976 44.1156C93.4712 47.0576 93.5225 51.852 88.749 54.794ZM245.046 87.9733L108.254 4.12603C100.349 -0.722838 87.5171 -0.722838 79.6637 4.12603L6.3147 49.3458C-1.53863 54.1947 -1.4873 62.0945 6.41735 66.9434L143.209 150.791C151.114 155.64 163.946 155.64 171.799 150.791L245.097 105.571C253.002 100.722 252.95 92.8222 245.046 87.9733ZM173.288 134.828C172.415 133.956 171.389 133.139 170.157 132.376C162.149 127.473 149.163 127.473 141.207 132.376C140.591 132.757 140.078 133.139 139.513 133.575L33.3137 68.4689C34.3403 68.0331 35.3155 67.5427 36.2395 66.9979C44.1954 62.0945 44.1441 54.1402 36.1368 49.2369C35.2642 48.6921 34.3403 48.2017 33.365 47.8203L77.1486 20.7974C77.8159 21.3967 78.5858 21.9415 79.4584 22.4864C87.4657 27.3897 100.452 27.3897 108.408 22.4864C109.332 21.9415 110.102 21.3422 110.82 20.6885L217.379 85.9575C215.942 86.5023 214.659 87.1016 213.427 87.8644C205.471 92.7677 205.471 100.777 213.53 105.68C214.761 106.443 216.147 107.042 217.585 107.587L173.288 134.828ZM2.82433 83.7238C6.3147 81.8169 11.7042 82.0893 15.0406 84.1596L158.043 171.766L235.344 124.04C238.681 121.97 244.173 121.97 247.561 124.04C250.948 126.111 250.948 129.488 247.612 131.559L165.434 182.227C161.431 184.733 154.861 184.733 150.806 182.227L147.931 180.483L145.929 179.23L2.56768 91.4057C-0.922683 89.2809 -0.871354 85.7396 2.82433 83.7238ZM247.715 158.963L165.537 209.631C161.533 212.137 154.963 212.137 150.908 209.631L148.085 207.888L146.032 206.634L2.67034 118.81C-0.820025 116.685 -0.717367 113.144 2.97832 111.128C6.41735 109.221 11.8582 109.494 15.1946 111.564L158.146 199.17L235.447 151.499C238.835 149.429 244.276 149.429 247.663 151.499C251.051 153.515 251.102 156.893 247.715 158.963Z" fill="url(#paint0_linear_63_411)"/>
</g>
<defs>
<linearGradient id="paint0_linear_63_411" x1="21.5795" y1="48.7487" x2="207.581" y2="196.457" gradientUnits="userSpaceOnUse">
<stop stop-color="#5577CD"/>
<stop offset="1" stop-color="#5577CD"/>
</linearGradient>
<clipPath id="clip0_63_411">
<rect width="251" height="212" fill="white"/>
</clipPath>
</defs>
</svg>
