<svg width="161" height="212" viewBox="0 0 161 212" fill="none" xmlns="http://www.w3.org/2000/svg">
<g clip-path="url(#clip0_63_407)">
<path d="M134.81 73.3354L110.188 40.8609C107.591 37.4333 103.597 35.4274 99.3698 35.4274H61.319C57.0919 35.4274 53.0977 37.4333 50.5011 40.8609L25.8784 73.3354C27.5843 99.3136 39.7518 120.977 59.7912 129.733V129.726C66.0325 132.443 72.9178 133.963 80.3444 133.963C87.7709 133.963 94.6563 132.443 100.898 129.719V129.726C120.937 120.977 133.098 99.3136 134.81 73.3354ZM59.7912 91.7334C56.0094 91.7334 52.9401 88.5803 52.9401 84.6952C52.9401 80.8101 56.0094 77.6569 59.7912 77.6569C63.573 77.6569 66.6423 80.8101 66.6423 84.6952C66.6423 88.5803 63.573 91.7334 59.7912 91.7334ZM100.898 91.7334C97.1158 91.7334 94.0465 88.5803 94.0465 84.6952C94.0465 80.8101 97.1158 77.6569 100.898 77.6569C104.679 77.6569 107.749 80.8101 107.749 84.6952C107.749 88.5803 104.679 91.7334 100.898 91.7334ZM25.5359 62.3276V28.3891C25.5359 12.8416 37.8061 0.236084 52.9401 0.236084H107.749C122.883 0.236084 135.153 12.8416 135.153 28.3891V62.3276L115.593 36.5394C111.702 31.3945 105.714 28.3891 99.3698 28.3891H61.3121C54.968 28.3891 48.9802 31.3945 45.0888 36.5394L25.5359 62.3276ZM160.591 194.316L158.275 183.372C156.419 172.906 149.122 164.509 139.407 161.525L106.961 149.377L101.069 154.613C95.3071 159.758 87.908 162.602 80.2348 162.602C72.589 162.602 65.2172 159.779 59.4692 154.641L53.6321 149.461L21.5006 161.454C11.5871 164.516 4.27016 172.913 2.42037 183.386L0.39246 194.788C-1.14218 203.431 5.31838 211.384 13.8685 211.384H147.197C155.939 211.384 162.448 203.093 160.591 194.316ZM135.153 190.269C135.153 194.154 132.084 197.307 128.302 197.307H107.749C103.967 197.307 100.898 194.154 100.898 190.269V183.231C100.898 179.346 103.967 176.193 107.749 176.193H128.302C132.084 176.193 135.153 179.346 135.153 183.231V190.269ZM80.3444 141.001C87.6956 141.001 94.5672 139.699 100.898 137.348V145.456L96.5814 149.299C87.5517 157.358 72.9863 157.379 63.9635 149.328L59.7912 145.625V137.355C66.1216 139.699 72.9932 141.001 80.3444 141.001ZM107.749 183.231H128.302V190.269H107.749V183.231Z" fill="url(#paint0_linear_63_407)"/>
</g>
<defs>
<linearGradient id="paint0_linear_63_407" x1="-41.6573" y1="26.0749" x2="122.856" y2="209.736" gradientUnits="userSpaceOnUse">
<stop stop-color="#414141"/>
<stop offset="1" stop-color="#262626"/>
</linearGradient>
<clipPath id="clip0_63_407">
<rect width="161" height="212" fill="white"/>
</clipPath>
</defs>
</svg>
