<svg width="217" height="212" viewBox="0 0 217 212" fill="none" xmlns="http://www.w3.org/2000/svg">
<g clip-path="url(#clip0_63_409)">
<path fill-rule="evenodd" clip-rule="evenodd" d="M192.635 84.6116C192.635 36.9822 154.83 0 108.357 0C61.8842 0 24.0796 36.9822 24.0796 82.4444C10.0775 89.4758 0.000305485 102.42 0.000305485 117.778V141.333C0.000305485 150.704 3.80568 159.692 10.5793 166.318C17.3529 172.944 26.5399 176.667 36.1193 176.667H48.159C51.3521 176.667 54.4144 175.426 56.6723 173.217C58.9302 171.008 60.1986 168.013 60.1986 164.889V94.2222C60.1986 91.0986 58.9302 88.1028 56.6723 85.8941C54.4144 83.6853 51.3521 82.4444 48.159 82.4444C48.159 66.8261 54.5013 51.8475 65.7906 40.8037C77.08 29.7599 92.3917 23.5556 108.357 23.5556C124.323 23.5556 139.635 29.7599 150.924 40.8037C162.213 51.8475 168.556 66.8261 168.556 82.4444C165.362 82.4444 162.3 83.6853 160.042 85.8941C157.784 88.1028 156.516 91.0986 156.516 94.2222V164.889C156.516 168.013 157.784 171.008 160.042 173.217C162.3 175.426 165.362 176.667 168.556 176.667V188.444H137.349C134.869 181.602 128.247 176.667 120.397 176.667H96.3176C91.5279 176.667 86.9344 178.528 83.5476 181.841C80.1608 185.154 78.2581 189.648 78.2581 194.333C78.2581 199.019 80.1608 203.512 83.5476 206.826C86.9344 210.139 91.5279 212 96.3176 212H168.556C174.942 212 181.066 209.518 185.582 205.101C190.098 200.683 192.635 194.692 192.635 188.444V174.511C199.663 172.095 205.752 167.607 210.064 161.666C214.377 155.724 216.7 148.62 216.714 141.333V117.778C216.701 110.492 214.378 103.39 210.065 97.4494C205.753 91.5093 199.663 87.0239 192.635 84.6116L-84.2773 730.222Z" fill="url(#paint0_linear_63_409)"/>
</g>
<defs>
<linearGradient id="paint0_linear_63_409" x1="38.96" y1="45.5141" x2="172.58" y2="217.719" gradientUnits="userSpaceOnUse">
<stop stop-color="#3C3C3C"/>
<stop offset="1" stop-color="#262626"/>
</linearGradient>
<clipPath id="clip0_63_409">
<rect width="217" height="212" fill="white"/>
</clipPath>
</defs>
</svg>
